<?xml version="1.0" encoding="UTF-8"?>
<svg width="60px" height="60px" viewBox="0 0 60 60" version="1.1" xmlns="http://www.w3.org/2000/svg" xmlns:xlink="http://www.w3.org/1999/xlink">
    <title>Icon/Tier/00_Unranked</title>
    <g id="Icon/Tier/00_Unranked" stroke="none" stroke-width="1" fill="none" fill-rule="evenodd">
        <rect id="Rectangle" x="0" y="0" width="60" height="60"></rect>
        <path d="M24.4155081,17.345769 C26.9641114,16.1312512 29.6531039,15.6935871 32.4716864,16.218784 C36.532173,16.9737546 39.6207347,19.1401918 41.7697688,22.7180957 C41.9317563,22.9916358 41.9209572,23.1448182 41.6077813,23.2432927 C41.2514088,23.3527087 40.8950363,23.5058911 40.5278647,23.5605991 C38.4976214,23.866964 36.8129514,24.8407666 35.3766622,26.2850581 C33.1952306,28.4843201 31.8561339,31.1650127 31.0893931,34.1630117 C30.6898239,35.7167192 30.4846397,37.2813684 30.5710331,38.9882583 L31.0476651,38.5786047 L31.0476651,38.5786047 L31.9636072,37.7829314 C32.1141908,37.6529452 32.2644288,37.5242719 32.4153579,37.3969117 L33.5047153,36.4937012 C33.8610667,36.2032786 34.2306007,35.9246097 34.6423189,35.7057776 C34.9878922,35.5197704 35.1174822,35.640128 35.0742855,36.0012009 L34.9534949,36.8627508 C34.9338964,37.0066126 34.9158978,37.1500691 34.9014989,37.29231 C34.7719089,38.4958862 35.0202897,39.6119296 35.5494489,40.7060899 L35.5909177,40.6673128 L35.5909177,40.6673128 L35.6505291,40.6202202 C35.6652159,40.6084908 35.6747192,40.5988622 35.6790389,40.5857322 C36.4565789,38.3427038 37.9684622,36.7780546 40.095898,35.8699017 C41.0354255,35.4650624 42.039748,35.3447048 42.946878,36.0230841 C40.7762455,40.2574842 37.374508,42.9272351 32.7416656,43.7587969 C26.2621656,44.9295483 20.2902265,41.7674253 17.3636523,35.8151936 C17.9576065,35.4869456 18.6055565,35.4978872 19.1995107,35.6620112 C21.6077248,36.329449 23.2275998,37.9378645 24.210324,40.235601 L24.2213175,40.2743452 L24.2213175,40.2743452 L24.2452269,40.4069902 C24.2638878,40.4960111 24.2988771,40.5747906 24.4155081,40.5747906 C24.5234998,40.5674962 24.5738959,40.4823949 24.611493,40.3875677 L24.663889,40.2465426 C24.9554665,39.5025136 25.1498515,38.7256598 25.1390523,37.9159813 C25.1336527,37.6041456 25.1012552,37.2977808 25.0607583,36.9927836 L24.974565,36.3833971 C24.9602661,36.2817314 24.9464672,36.1799137 24.9338681,36.0777921 L24.916151,35.9707475 C24.8952044,35.8419398 24.8858718,35.7057776 25.0202615,35.6291864 C25.1336527,35.571743 25.2348949,35.6189287 25.3285439,35.6784236 L25.4198306,35.7386024 L25.4198306,35.7386024 C25.9417903,36.0577325 26.4337524,36.4300509 26.9082158,36.8238979 L27.6307224,37.4370892 L27.6307224,37.4370892 L29.4263214,38.9773167 L29.4263214,38.9773167 C29.5343131,37.6862076 29.3939239,36.5154562 29.1779406,35.3556464 C28.6055848,32.2810561 27.4068773,29.5018891 25.3874331,27.1056782 C24.0051398,25.4644379 22.3528673,24.2389785 20.2470298,23.7247232 C19.7826657,23.6153071 19.3075023,23.5277743 18.8431382,23.3964751 C18.4219707,23.2761175 18.4327698,23.0901102 18.6163557,22.7728038 C20.0094482,20.3765929 21.9316998,18.5274621 24.4155081,17.345769 Z M46.1542305,27.0947366 L46.3740499,27.0153549 L46.3740499,27.0153549 L46.4903475,26.9804645 C46.7183025,26.921859 46.7958068,26.9772378 46.8340108,27.2157516 L46.8492576,27.3390904 L46.8492576,27.3390904 L46.8669755,27.5761671 L46.8669755,27.5761671 C46.9709674,30.3366929 46.2437939,32.8638578 44.9072474,35.2260543 L44.7188641,35.5515374 L44.7188641,35.5515374 L44.6598378,35.6470413 C44.5448646,35.8205255 44.4397626,35.8816874 44.1896311,35.7012792 L44.1239871,35.6510696 C42.2665305,34.1411285 40.0527013,34.567851 38.2492405,35.8370769 C37.309713,36.5045146 36.4889764,37.3032516 35.7870305,38.3427038 C35.7222355,38.0144557 35.7438339,37.7190324 35.7789312,37.4386539 L35.8228622,37.1082831 C35.8365555,36.9998081 35.8477435,36.8926023 35.8517607,36.7855278 L35.8518255,36.6248722 C35.8043092,35.1805807 36.5261773,34.109109 37.3918869,33.1122012 L37.6310859,32.8419419 C37.6713901,32.7971321 37.711874,32.7524203 37.7524789,32.7077786 C40.095898,30.1255605 42.946878,28.3311377 46.1542305,27.0947366 Z M13.1519774,27.608992 L13.1603931,27.3665457 L13.1603931,27.3665457 L13.1688159,27.2393607 C13.1916353,26.9922399 13.2497042,26.926367 13.451148,26.9704469 L13.5546963,26.9983391 L13.5546963,26.9983391 L13.6809678,27.0402882 L13.6809678,27.0402882 L13.8323249,27.0947366 L13.8323249,27.0947366 C16.175744,27.93724 18.2815815,29.2064659 20.2146323,30.771115 C21.1973565,31.569852 22.072089,32.478005 22.8928256,33.440866 C23.7459598,34.4365518 24.1779265,35.5525952 24.1671273,36.8546459 C24.1671273,36.9799769 24.1831922,37.1044942 24.2030542,37.2306391 L24.2442062,37.4858226 C24.2831514,37.7446231 24.3045712,38.0164451 24.210324,38.3208206 C23.756759,37.7190324 23.3355915,37.1610107 22.8172315,36.6905218 C21.8345073,35.8151936 20.7545907,35.1149311 19.4586907,34.8195078 C18.2167865,34.5459678 17.0720749,34.7538582 16.0569532,35.5635368 L15.8680465,35.7117748 L15.8680465,35.7117748 L15.7693602,35.7816422 C15.5752166,35.907157 15.4987234,35.8625541 15.3400523,35.6088982 L15.2146182,35.3994128 L15.2146182,35.3994128 C13.7999274,32.9922603 13.0547849,30.4209837 13.1519774,27.608992 Z M48.9944113,19.2277246 C49.0246489,19.8404543 48.9278884,20.410293 48.8078449,20.9747703 L48.6488379,21.7005267 L48.6488379,21.7005267 C48.4112563,22.9259862 48.1088796,24.1514456 47.4285321,25.2237227 C47.1477538,25.6723284 46.834578,26.011518 46.2730213,26.1865837 C43.5084346,27.0400286 41.0786222,28.5280865 38.864793,30.3991005 C37.5891415,31.4761645 36.4463703,32.6686282 35.5966478,34.1207412 L35.430658,34.4146686 C35.3550639,34.5459678 35.301068,34.7210334 35.0958839,34.731975 C34.4373747,34.7592075 33.9293819,35.0660262 33.4522357,35.4310215 L33.2156791,35.6173421 L33.2156791,35.6173421 L32.846339,35.9149288 C32.7619307,35.9817491 32.6768706,36.0473988 32.5904772,36.1106169 C32.3744939,36.2637993 32.1801089,36.4607482 31.9641256,36.6248722 C31.9403674,36.6423788 31.9179051,36.665575 31.8957884,36.6906969 L31.8295248,36.7680759 C31.7623971,36.8437043 31.6898267,36.9027889 31.5861547,36.8437043 C31.4853625,36.785349 31.4853625,36.6686386 31.5029612,36.5519282 L31.5321589,36.384157 L31.5321589,36.384157 C31.7265439,35.1477559 31.9749247,33.9222965 32.4068914,32.7406034 C33.2600256,30.4100421 34.4911305,28.3092545 36.3269889,26.6242478 C37.4183046,25.6218754 38.6252115,24.9025326 40.0750737,24.5768286 L40.3334797,24.5234601 C42.2665305,24.1623872 43.983598,23.2432927 45.603473,22.1381908 C46.224425,21.7073652 46.8031929,21.2252509 47.3740512,20.7319171 L48.4004571,19.8404543 L48.4004571,19.8404543 C48.5948421,19.6763303 48.6812354,19.3809071 48.9944113,19.2277246 Z M11.0245416,19.2058414 C11.9532699,20.2015272 12.9035966,21.033089 13.9295174,21.7771179 C15.6985237,23.0692691 17.5752768,24.0537652 19.7276938,24.5132156 L20.0526448,24.5781681 C21.4025407,24.8188834 22.5688506,25.5519707 23.5731731,26.4929485 C26.2354853,28.9779795 27.717699,32.0711496 28.3456577,35.6223947 L28.4120695,36.0135222 L28.4120695,36.0135222 L28.4457028,36.1535619 L28.4457028,36.1535619 L28.5009934,36.3670906 C28.5434345,36.5536402 28.5531317,36.7233466 28.4111998,36.8108795 C28.2754388,36.8984123 28.1537829,36.7930156 28.032127,36.6559744 L27.8945202,36.4969583 C27.8481555,36.4451731 27.8010469,36.3974432 27.7524506,36.3622738 C27.3393825,36.0750567 26.944538,35.763221 26.5496934,35.4590787 L26.1541739,35.1586975 C25.9381906,34.9945735 25.700609,34.8195078 25.4306298,34.8195078 C24.9041704,34.8106178 24.6486183,34.5128011 24.4148991,34.1490729 L24.2535206,33.8894716 L24.2535206,33.8894716 C23.1196081,32.0403409 21.553729,30.606991 19.8150632,29.3487067 C17.8388157,27.9153568 15.7329782,26.7227222 13.3679607,26.0552844 C12.9187154,25.9239852 12.6699026,25.5055783 12.4667055,25.091373 L12.3204416,24.7860586 L12.3204416,24.7860586 C11.5105041,23.1338766 11.2081274,21.3394539 11.0029432,19.5340895 C10.9986236,19.4990764 10.9994875,19.4640632 11.0027704,19.4248485 L11.0171117,19.2903981 C11.0197899,19.2644884 11.0223817,19.2364779 11.0245416,19.2058414 Z M30.2902547,22.4117309 C30.1390664,22.3351397 29.9770789,22.3351397 29.8258906,22.4117309 C28.7243756,23.0025774 27.5256681,23.3198839 26.3161614,23.5934239 C26.0245839,23.6590735 25.9813873,23.7903728 26.2081698,24.031088 L28.6319827,26.5646768 C29.0351516,26.9877521 29.4371206,27.4120431 29.8366898,27.8387656 C30.0559959,28.0710642 30.1924871,28.0236722 30.3480895,27.860101 L30.3874472,27.8168824 C30.6682256,27.5032231 30.9538035,27.1895639 31.2409814,26.8791466 L32.1664588,25.8854708 L32.1664588,25.8854708 L33.1662024,24.8210717 L33.1662024,24.8210717 L34.1887539,23.7356648 L34.1887539,23.7356648 L33.9511722,23.6481319 L33.9511722,23.6481319 L33.2724069,23.4693506 C32.2533826,23.1987124 31.2356727,22.904103 30.2902547,22.4117309 Z M30.1714639,23.3417671 C30.8626106,23.6481319 31.5753556,23.9107304 32.2988997,24.1076792 C32.4968845,24.1623872 32.4698865,24.2626853 32.3928925,24.3705816 L32.3420964,24.4359273 L32.3420964,24.4359273 C31.6509497,25.1690146 30.9490039,25.902102 30.2686564,26.646131 C30.1066689,26.8211966 29.9986773,26.810255 29.8366898,26.6351894 C29.1671414,25.902102 28.4759948,25.1799563 27.8064464,24.4578105 L27.7413059,24.3952245 L27.7413059,24.3952245 L27.6992547,24.3504207 C27.6360596,24.2742347 27.6192609,24.1915648 27.8280448,24.1186208 L28.5267908,23.8827685 L28.5267908,23.8827685 L29.9122839,23.3964751 L29.9122839,23.3964751 C29.9986773,23.3636503 30.0850706,23.3527087 30.1714639,23.3417671 Z" id="Shape" fill="#1C2023" fill-rule="nonzero"></path>
    </g>
</svg>